<svg xmlns="http://www.w3.org/2000/svg" viewBox="0 0 387.973 387.973">
    <defs>
        <clipPath clipPathUnits="userSpaceOnUse" id="a">
            <path d="M0 600h600V0H0Z"/>
        </clipPath>
        <clipPath clipPathUnits="userSpaceOnUse" id="b">
            <path d="M200 400h200V200H200Z"/>
        </clipPath>
        <clipPath clipPathUnits="userSpaceOnUse" id="c">
            <path d="M206.727 309.143H393.26V200.007H206.727Z"/>
        </clipPath>
        <clipPath clipPathUnits="userSpaceOnUse" id="d">
            <path d="M313.866 359.223h41.527v-41.525h-41.527z"/>
        </clipPath>
        <clipPath clipPathUnits="userSpaceOnUse" id="e">
            <path d="M241.27 386.374h117.567v-156.75H241.27Z"/>
        </clipPath>
    </defs>
    <g clip-path="url(#a)" transform="matrix(1.33333 0 0 -1.33333 -206.01 593.987)">
        <path d="M435.488 300c0-34.68-13.23-69.35-39.68-95.81-.83-.83-1.66-1.64-2.5-2.44-1.69-1.6-3.41-3.15-5.15-4.65-1.75-1.5-3.52-2.95-5.32-4.34-1.8-1.4-3.63-2.74-5.49-4.03-1.85-1.29-3.73-2.53-5.63-3.72-1.9-1.19-3.83-2.33-5.77-3.41-1.95-1.09-3.91-2.12-5.9-3.1-1.99-.98-3.99-1.91-6.01-2.79-17.2-7.47-35.62-11.2-54.04-11.2s-36.84 3.73-54.03 11.2c-1.69.73-3.37 1.5-5.04 2.33-2.68 1.28-5.32 2.67-7.93 4.17-1.59.88-3.16 1.82-4.72 2.8a118.9 118.9 0 0 0-5.63 3.72c-1.86 1.29-3.69 2.63-5.49 4.03-1.8 1.39-3.57 2.84-5.32 4.34-1.74 1.5-3.46 3.05-5.15 4.65-.84.8-1.67 1.61-2.5 2.44-26.45 26.46-39.68 61.13-39.68 95.81s13.23 69.35 39.68 95.81c26.46 26.45 61.13 39.68 95.81 39.68s69.35-13.23 95.81-39.68c26.45-26.46 39.68-61.13 39.68-95.81" fill="#0e0e0e"/>
        <path d="M435.488 300c0-34.68-13.23-69.35-39.68-95.81-.83-.83-1.66-1.64-2.5-2.44-1.69-1.6-3.41-3.15-5.15-4.65-1.75-1.5-3.52-2.95-5.32-4.34-1.8-1.4-3.63-2.74-5.49-4.03-1.85-1.29-3.73-2.53-5.63-3.72-1.9-1.19-3.83-2.32-5.77-3.41-1.95-1.09-3.91-2.12-5.9-3.1-1.99-.98-3.99-1.91-6.01-2.79-17.2-7.47-35.62-11.2-54.04-11.2s-36.84 3.73-54.03 11.2c-1.7.73-3.38 1.51-5.04 2.33-2.68 1.28-5.32 2.67-7.93 4.17-1.59.89-3.16 1.83-4.72 2.8a118.9 118.9 0 0 0-5.63 3.72c-1.86 1.29-3.69 2.63-5.49 4.03-1.8 1.39-3.57 2.84-5.32 4.34-1.74 1.5-3.46 3.05-5.15 4.65-.84.8-1.67 1.61-2.5 2.44-26.45 26.46-39.68 61.13-39.68 95.81s13.23 69.35 39.68 95.81c26.46 26.45 61.13 39.68 95.81 39.68s69.35-13.23 95.81-39.68c26.45-26.46 39.68-61.13 39.68-95.81" fill="#0e0e0e"/>
        <path d="M392.268 207.72c-.79-.79-1.6-1.58-2.41-2.35-1.58-1.5-3.25-3.01-4.96-4.48-1.77-1.51-3.44-2.88-5.12-4.17-1.69-1.32-3.46-2.62-5.28-3.88-1.75-1.22-3.58-2.43-5.43-3.59-1.69-1.06-3.51-2.13-5.57-3.29-1.85-1.04-3.76-2.04-5.66-2.97-1.94-.96-3.89-1.86-5.8-2.7-16.47-7.15-33.98-10.78-52.04-10.78-18.06 0-35.57 3.63-52.04 10.79-1.58.67-3.19 1.42-4.82 2.22l-.03.02-.03.01c-2.53 1.21-5.08 2.56-7.59 4l-.02.01-.03.01c-1.39.78-2.87 1.66-4.52 2.69-1.84 1.14-3.66 2.34-5.4 3.56-1.84 1.28-3.61 2.58-5.29 3.89-1.69 1.3-3.36 2.67-5.14 4.19-1.7 1.46-3.37 2.97-4.96 4.48-.8.76-1.61 1.55-2.4 2.35-24.65 24.65-38.22 57.42-38.22 92.27 0 34.85 13.57 67.62 38.22 92.28 24.65 24.64 57.42 38.21 92.27 38.21 34.85 0 67.62-13.57 92.27-38.22 24.65-24.65 38.22-57.42 38.22-92.27 0-34.85-13.57-67.62-38.22-92.28m3.54 188.09c-26.46 26.45-61.13 39.68-95.81 39.68s-69.35-13.23-95.81-39.68c-26.45-26.46-39.68-61.13-39.68-95.81s13.23-69.35 39.68-95.81c.83-.83 1.66-1.64 2.5-2.44 1.69-1.6 3.41-3.15 5.15-4.65 1.75-1.5 3.52-2.95 5.32-4.34 1.8-1.4 3.63-2.74 5.49-4.03a118.9 118.9 0 0 1 5.63-3.72c1.56-.97 3.13-1.91 4.72-2.8 2.61-1.5 5.25-2.89 7.93-4.17 1.66-.82 3.34-1.6 5.04-2.33 17.19-7.47 35.61-11.2 54.03-11.2s36.84 3.73 54.04 11.2c2.02.88 4.02 1.81 6.01 2.79 1.99.98 3.95 2.01 5.9 3.1 1.94 1.09 3.87 2.22 5.77 3.41 1.9 1.19 3.78 2.43 5.63 3.72 1.86 1.29 3.69 2.63 5.49 4.03 1.8 1.39 3.57 2.84 5.32 4.34 1.74 1.5 3.46 3.05 5.15 4.65.84.8 1.67 1.61 2.5 2.44 26.45 26.46 39.68 61.13 39.68 95.81s-13.23 69.35-39.68 95.81m-3.54-188.09c-.79-.79-1.6-1.58-2.41-2.35-1.58-1.5-3.25-3.01-4.96-4.48-1.77-1.51-3.44-2.88-5.12-4.17-1.69-1.32-3.46-2.62-5.28-3.88-1.75-1.22-3.58-2.43-5.43-3.59-1.69-1.06-3.51-2.13-5.57-3.29-1.85-1.04-3.76-2.04-5.66-2.97-1.94-.96-3.89-1.86-5.8-2.7-16.47-7.15-33.98-10.78-52.04-10.78-18.06 0-35.57 3.63-52.04 10.79-1.58.67-3.19 1.42-4.82 2.22l-.03.02-.03.01c-2.53 1.21-5.08 2.56-7.59 4l-.02.01-.03.01c-1.39.78-2.87 1.66-4.52 2.69-1.84 1.14-3.66 2.34-5.4 3.56-1.84 1.28-3.61 2.58-5.29 3.89-1.69 1.3-3.36 2.67-5.14 4.19-1.7 1.46-3.37 2.97-4.96 4.48-.8.76-1.61 1.55-2.4 2.35-24.65 24.65-38.22 57.42-38.22 92.27 0 34.85 13.57 67.62 38.22 92.28 24.65 24.64 57.42 38.21 92.27 38.21 34.85 0 67.62-13.57 92.27-38.22 24.65-24.65 38.22-57.42 38.22-92.27 0-34.85-13.57-67.62-38.22-92.28m3.54 188.09c-26.46 26.45-61.13 39.68-95.81 39.68s-69.35-13.23-95.81-39.68c-26.45-26.46-39.68-61.13-39.68-95.81s13.23-69.35 39.68-95.81c.83-.83 1.66-1.64 2.5-2.44 1.69-1.6 3.41-3.15 5.15-4.65 1.75-1.5 3.52-2.95 5.32-4.34 1.8-1.4 3.63-2.74 5.49-4.03a118.9 118.9 0 0 1 5.63-3.72c1.56-.97 3.13-1.91 4.72-2.8 2.61-1.5 5.25-2.89 7.93-4.17 1.66-.82 3.34-1.6 5.04-2.33 17.19-7.47 35.61-11.2 54.03-11.2s36.84 3.73 54.04 11.2c2.02.88 4.02 1.81 6.01 2.79 1.99.98 3.95 2.01 5.9 3.1 1.94 1.09 3.87 2.22 5.77 3.41 1.9 1.19 3.78 2.43 5.63 3.72 1.86 1.29 3.69 2.63 5.49 4.03 1.8 1.39 3.57 2.84 5.32 4.34 1.74 1.5 3.46 3.05 5.15 4.65.84.8 1.67 1.61 2.5 2.44 26.45 26.46 39.68 61.13 39.68 95.81s-13.23 69.35-39.68 95.81m-3.54-188.09c-.79-.79-1.6-1.58-2.41-2.35-1.58-1.5-3.25-3.01-4.96-4.48-1.77-1.51-3.44-2.88-5.12-4.17-1.69-1.32-3.46-2.62-5.28-3.88-1.75-1.22-3.58-2.43-5.43-3.59-1.69-1.06-3.51-2.13-5.57-3.29-1.85-1.04-3.76-2.04-5.66-2.97-1.94-.96-3.89-1.86-5.8-2.7-16.47-7.15-33.98-10.78-52.04-10.78-18.06 0-35.57 3.63-52.04 10.79-1.58.67-3.19 1.42-4.82 2.22l-.03.02-.03.01c-2.53 1.21-5.08 2.56-7.59 4l-.02.01-.03.01c-1.39.78-2.87 1.66-4.52 2.69-1.84 1.14-3.66 2.34-5.4 3.56-1.84 1.28-3.61 2.58-5.29 3.89-1.69 1.3-3.36 2.67-5.14 4.19-1.7 1.46-3.37 2.97-4.96 4.48-.8.76-1.61 1.55-2.4 2.35-24.65 24.65-38.22 57.42-38.22 92.27 0 34.85 13.57 67.62 38.22 92.28 24.65 24.64 57.42 38.21 92.27 38.21 34.85 0 67.62-13.57 92.27-38.22 24.65-24.65 38.22-57.42 38.22-92.27 0-34.85-13.57-67.62-38.22-92.28m3.54 188.09c-26.46 26.45-61.13 39.68-95.81 39.68s-69.35-13.23-95.81-39.68c-26.45-26.46-39.68-61.13-39.68-95.81s13.23-69.35 39.68-95.81c.83-.83 1.66-1.64 2.5-2.44 1.69-1.6 3.41-3.15 5.15-4.65 1.75-1.5 3.52-2.95 5.32-4.34 1.8-1.4 3.63-2.74 5.49-4.03a118.9 118.9 0 0 1 5.63-3.72c1.56-.97 3.13-1.91 4.72-2.8 2.61-1.5 5.25-2.89 7.93-4.17 1.66-.82 3.34-1.6 5.04-2.33 17.19-7.47 35.61-11.2 54.03-11.2s36.84 3.73 54.04 11.2c2.02.88 4.02 1.81 6.01 2.79 1.99.98 3.95 2.01 5.9 3.1 1.94 1.09 3.87 2.22 5.77 3.41 1.9 1.19 3.78 2.43 5.63 3.72 1.86 1.29 3.69 2.63 5.49 4.03 1.8 1.39 3.57 2.84 5.32 4.34 1.74 1.5 3.46 3.05 5.15 4.65.84.8 1.67 1.61 2.5 2.44 26.45 26.46 39.68 61.13 39.68 95.81s-13.23 69.35-39.68 95.81m3.54-195.15c-.86-.86-1.73-1.71-2.6-2.54-1.71-1.62-3.5-3.23-5.34-4.82a136.916 136.916 0 0 0-11.2-8.67c-1.88-1.31-3.84-2.61-5.84-3.86a143.11 143.11 0 0 0-5.98-3.53c-2.01-1.13-4.08-2.21-6.13-3.23-2.08-1.02-4.17-1.99-6.23-2.89-17.74-7.7-36.59-11.61-56.03-11.61-19.44 0-38.29 3.91-56 11.61-1.71.73-3.48 1.55-5.25 2.42-2.75 1.31-5.51 2.77-8.21 4.32-1.53.85-3.13 1.8-4.9 2.9-2 1.24-3.97 2.55-5.84 3.86a135.29 135.29 0 0 0-11.22 8.69c-1.83 1.58-3.62 3.19-5.34 4.82-.86.82-1.73 1.67-2.59 2.53-26.53 26.54-41.14 61.82-41.14 99.34s14.61 72.8 41.15 99.35c26.54 26.53 61.82 41.14 99.34 41.14s72.8-14.61 99.35-41.15c26.53-26.54 41.14-61.82 41.14-99.34s-14.61-72.8-41.14-99.34m3.53 202.22c-27.49 27.48-64.02 42.61-102.88 42.61s-75.39-15.13-102.88-42.61c-27.48-27.49-42.61-64.02-42.61-102.88s15.13-75.39 42.61-102.88c.88-.88 1.78-1.76 2.67-2.61 1.78-1.68 3.63-3.36 5.52-4.98 1.99-1.71 3.86-3.23 5.74-4.68 1.87-1.46 3.86-2.92 5.9-4.34 1.93-1.35 3.98-2.71 6.05-4 1.83-1.13 3.49-2.11 5.07-3 2.8-1.61 5.65-3.11 8.49-4.46 1.84-.91 3.68-1.76 5.46-2.53 18.34-7.97 37.85-12.01 57.98-12.01 20.13 0 39.65 4.05 58.02 12.03 2.13.93 4.3 1.93 6.45 2.99 2.13 1.05 4.27 2.17 6.36 3.34 2.28 1.29 4.31 2.48 6.2 3.66 2.06 1.3 4.1 2.64 6.04 4 2.02 1.4 4.01 2.86 5.91 4.34 1.86 1.43 3.72 2.95 5.69 4.64 1.9 1.64 3.76 3.31 5.52 4.98.91.87 1.81 1.75 2.69 2.63 27.48 27.49 42.61 64.02 42.61 102.88s-15.13 75.39-42.61 102.88" fill="#0e0e0e"/>
        <g clip-path="url(#b)" opacity=".5">
            <path d="M400 300c0-12.76-2.387-24.953-6.74-36.173-5.073-13.067-12.813-24.8-22.547-34.54-17.82-17.814-42.32-28.934-69.42-29.28-.433-.007-.86-.007-1.293-.007-.433 0-.86 0-1.293.007h-.007c-41.927.533-77.633 26.873-91.973 63.86C202.387 275.073 200 287.26 200 300c0 27.613 11.193 52.613 29.287 70.713C247.387 388.807 272.387 400 300 400c27.613 0 52.613-11.193 70.713-29.287C388.807 352.613 400 327.613 400 300" fill="#fff"/>
        </g>
        <g clip-path="url(#c)" opacity=".5">
            <path d="M393.26 263.827c-5.073-13.067-12.813-24.8-22.547-34.54-17.82-17.813-42.32-28.933-69.42-29.28-.866.007-1.726 0-2.586 0h-.007c-41.927.533-77.633 26.873-91.973 63.86 8.173 8.14 16.346 16.273 24.52 24.413 4.48 4.467 8.92 8.974 13.42 13.414 10.033 9.913 23.72 9.946 33.76.02 10.186-10.08 20.28-20.26 30.42-30.394 4.5-4.493 8.6-4.5 13.08-.033 4.993 4.98 9.953 9.987 14.96 14.947 10.133 10.02 23.82 10.046 33.933.02 7.507-7.454 14.967-14.947 22.44-22.427" fill="#fff"/>
        </g>
        <g clip-path="url(#d)" opacity=".2">
            <path d="M334.738 359.223c11.404-.034 20.672-9.372 20.655-20.813-.016-11.496-9.421-20.782-20.976-20.711-11.365.07-20.6 9.472-20.551 20.924.049 11.38 9.425 20.634 20.872 20.6" fill="#1d1d1b"/>
        </g>
        <g clip-path="url(#e)" opacity=".25">
            <path d="M306.05 271.243c-.763-.581-1.124-1.186-1.121-2.145.004-1.277.072-2.553.052-3.83-.055-3.571.016-7.13-.029-10.69-.037-3.12-2.11-5.353-4.903-5.343-2.795.007-4.858 2.237-4.878 5.363a873.86 873.86 0 0 0 .013 14.39c.01.949-.225 1.58-1.012 2.177-3.649 2.77-4.842 7.013-3.113 11.128 1.745 4.166 5.567 6.34 9.539 6.007 4.999-.42 8.333-3.638 9.035-8.23.559-3.665-.658-6.607-3.583-8.827m52.785 26.539c0 1.275-.089 2.533-.28 3.8-1.329 8.849-9.611 16.183-18.564 16.196-26.573.04-53.143.048-79.713 0-10.214-.02-18.942-8.823-18.973-19.086a9320.64 9320.64 0 0 1-.003-49.886c.017-8.48 6.079-16.28 14.234-18.497.863-.235 1.786-.221 2.588-.685h83.568c.576.529 1.343.3 2.012.474 9.239 2.387 15.124 9.918 15.127 19.482.011 16.068.004 32.137.004 48.202m-19.57 25.335c.014-.982-.218-1.292-1.248-1.282-5.714.051-11.428.051-17.14 0-1.032-.01-1.25.307-1.247 1.285.04 7.856.096 15.714.004 23.57-.096 7.998-3.553 14.197-10.713 17.88-13.153 6.76-28.298-2.736-28.438-17.734-.075-7.855-.037-15.714.014-23.569.007-1.132-.242-1.452-1.412-1.439a835.78 835.78 0 0 1-16.832.01c-.996-.01-1.412.13-1.405 1.286.058 8.264-.027 16.532.05 24.793.162 17.33 12.439 32.922 29.206 37.197 18.953 4.835 38.24-4.579 46.024-22.536 1.974-4.559 3.059-9.363 3.099-14.36.03-3.877.007-7.754.007-11.63h.01c0-4.49-.03-8.98.02-13.47" fill="#1d1d1b"/>
        </g>
    </g>
</svg>
