<svg id="Layer_2" data-name="Layer 2" xmlns="http://www.w3.org/2000/svg" viewBox="0 0 100 100"><defs><style>.cls-1{fill:#3caed7;}.cls-2,.cls-4{fill:#020202;}.cls-2,.cls-3{opacity:0.83;}</style></defs><title>icon-asset-warning</title><rect class="cls-1" width="100" height="100" rx="27.17"/><polygon class="cls-2" points="14.5 80.46 30.42 55.69 42.81 68.08 62.27 41.54 83.5 80.46 14.5 80.46"/><g class="cls-3"><path class="cls-4" d="M36.62,28.71V23.19a7,7,0,1,0-14,0v5.52a11,11,0,1,0,14,0ZM30.62,39v3.15h-2V39a4,4,0,1,1,2,0Zm4-11.64a10.94,10.94,0,0,0-10,0V23.19a5,5,0,1,1,10,0Z"/></g></svg>