<svg height="100" viewBox="0 0 100 100" width="100" xmlns="http://www.w3.org/2000/svg"><g fill="none" fill-rule="evenodd"><path d="m0 0h91.743v91.743h-91.743z" fill="#4385ff"/><circle cx="38.073" cy="24.312" fill="#dbce00" fill-rule="nonzero" r="8.716"/><path d="m27.982 44.037 22.477 27.523h-44.954z" fill="#fff"/><path d="m63.303 36.697 28.44 34.863h-56.881z" fill="#fff"/><g fill-rule="nonzero" transform="translate(50.459 50.459)"><circle cx="24.771" cy="24.771" fill="#d8ba45" r="24.771"/><path d="m26.146789 29.1784685c.9580875-.4978572 1.6125217-1.4993465 1.6125217-2.6536871 0-1.650596-1.3380725-2.9886685-2.9886685-2.9886685s-2.9886685 1.3380725-2.9886685 2.9886685c0 1.1543406.6544342 2.1558299 1.6125217 2.6536871v4.3995132h2.7522936zm-8.8552054-9.429226v-5.0035305c0-3.7803089 3.3550853-6.85580374 7.4790586-6.85580374s7.4790586 3.07549484 7.4790586 6.85580374v5.0035305h3.9888313v18.2612708h-22.9357798v-18.2612708zm12.2384596 0v-5.0035305c0-2.4056766-2.1350265-4.3627842-4.759401-4.3627842s-4.7594009 1.9571076-4.7594009 4.3627842v5.0035305z" fill="#fff"/></g></g></svg>